<svg width="46" height="44" viewBox="0 0 23 22" fill="none" xmlns="http://www.w3.org/2000/svg">
<path d="M5.35424 2.57412C3.9237 2.734 2.77864 3.86306 2.61312 5.27819C2.16851 9.07963 2.16851 12.9199 2.61312 16.7214C2.77864 18.1365 3.9237 19.2656 5.35424 19.4254C9.07527 19.8413 12.9248 19.8413 16.6458 19.4254C18.0764 19.2656 19.2214 18.1365 19.387 16.7214C19.7064 13.9899 19.7963 11.2384 19.6567 8.4957C19.6531 8.42487 19.6796 8.35578 19.7297 8.30563L21.0282 7.00716C21.1785 6.85687 21.4353 6.95085 21.4512 7.1628C21.6963 10.4189 21.629 13.6927 21.2493 16.9392C20.9807 19.2354 19.1371 21.0337 16.8541 21.2888C12.9947 21.7202 9.00542 21.7202 5.14598 21.2888C2.863 21.0337 1.01938 19.2354 0.750817 16.9392C0.289279 12.993 0.289279 9.00653 0.750817 5.06038C1.01938 2.76418 2.863 0.965875 5.14598 0.710719C9.00542 0.27937 12.9947 0.27937 16.8541 0.710719C17.6582 0.800585 18.4077 1.08187 19.0532 1.50892C19.1802 1.59295 19.1928 1.77149 19.0851 1.87918L18.0815 2.88278C17.9994 2.96488 17.8721 2.97868 17.7698 2.92385C17.428 2.74073 17.0482 2.61909 16.6458 2.57412C12.9248 2.15824 9.07527 2.15824 5.35424 2.57412Z" fill="#03CE2F"/>
<path d="M22.2879 3.53769C22.6541 3.17158 22.6541 2.57798 22.2879 2.21187C21.9218 1.84575 21.3282 1.84575 20.9621 2.21187L10.375 12.799L7.28794 9.71187C6.92182 9.34575 6.32823 9.34575 5.96211 9.71187C5.59599 10.078 5.59599 10.6716 5.96211 11.0377L9.71211 14.7877C10.0782 15.1538 10.6718 15.1538 11.0379 14.7877L22.2879 3.53769Z" fill="#03CE2F"/>
</svg>
