<svg width="45" height="45" viewBox="0 0 18 18" fill="none" xmlns="http://www.w3.org/2000/svg">
<path d="M5.46967 5.46948C5.76256 5.17658 6.23744 5.17658 6.53033 5.46948L9.00001 7.93916L11.4697 5.46949C11.7626 5.17659 12.2374 5.17659 12.5303 5.46949C12.8232 5.76238 12.8232 6.23725 12.5303 6.53015L10.0607 8.99982L12.5303 11.4695C12.8232 11.7624 12.8232 12.2372 12.5303 12.5301C12.2374 12.823 11.7626 12.823 11.4697 12.5301L9.00001 10.0605L6.53034 12.5301C6.23744 12.823 5.76257 12.823 5.46968 12.5301C5.17678 12.2373 5.17678 11.7624 5.46968 11.4695L7.93935 8.99982L5.46967 6.53014C5.17678 6.23725 5.17678 5.76237 5.46967 5.46948Z" fill="#CE0327"/>
<path fill-rule="evenodd" clip-rule="evenodd" d="M4.31673 0.768575C7.40429 0.423496 10.5957 0.423496 13.6832 0.768575C15.5096 0.9727 16.9845 2.41134 17.1994 4.2483C17.5686 7.40523 17.5686 10.5944 17.1994 13.7513C16.9845 15.5883 15.5096 17.0269 13.6832 17.2311C10.5957 17.5761 7.40429 17.5761 4.31673 17.2311C2.49035 17.0269 1.01545 15.5883 0.800605 13.7513C0.431374 10.5944 0.431374 7.40523 0.800605 4.2483C1.01545 2.41134 2.49035 0.9727 4.31673 0.768575ZM13.5166 2.25929C10.5398 1.92659 7.46017 1.92659 4.48334 2.25929C3.33891 2.3872 2.42286 3.29045 2.29045 4.42255C1.93476 7.4637 1.93476 10.5359 2.29045 13.5771C2.42286 14.7092 3.33891 15.6124 4.48334 15.7404C7.46017 16.0731 10.5398 16.0731 13.5166 15.7404C14.6611 15.6124 15.5771 14.7092 15.7095 13.5771C16.0652 10.5359 16.0652 7.4637 15.7095 4.42256C15.5771 3.29045 14.6611 2.3872 13.5166 2.25929Z" fill="#CE0327"/>
</svg>
