<svg width="20" height="21" viewBox="0 0 20 21" fill="none" xmlns="http://www.w3.org/2000/svg">
<path d="M7.50001 9.49995H10C10.2652 9.49995 10.5196 9.39459 10.7071 9.20705C10.8947 9.01952 11 8.76516 11 8.49995C11 8.23473 10.8947 7.98038 10.7071 7.79284C10.5196 7.6053 10.2652 7.49995 10 7.49995H9.00001V6.99995C9.00001 6.73473 8.89465 6.48038 8.70711 6.29284C8.51958 6.1053 8.26522 5.99995 8.00001 5.99995C7.73479 5.99995 7.48044 6.1053 7.2929 6.29284C7.10537 6.48038 7.00001 6.73473 7.00001 6.99995V7.54995C6.39243 7.67332 5.85237 8.01805 5.48466 8.51721C5.11696 9.01637 4.94785 9.63436 5.01015 10.2512C5.07246 10.868 5.36174 11.4397 5.82184 11.8553C6.28194 12.2708 6.88003 12.5006 7.50001 12.4999H8.50001C8.63262 12.4999 8.75979 12.5526 8.85356 12.6464C8.94733 12.7402 9.00001 12.8673 9.00001 12.9999C9.00001 13.1326 8.94733 13.2597 8.85356 13.3535C8.75979 13.4473 8.63262 13.4999 8.50001 13.4999H6.00001C5.73479 13.4999 5.48044 13.6053 5.2929 13.7928C5.10537 13.9804 5.00001 14.2347 5.00001 14.4999C5.00001 14.7652 5.10537 15.0195 5.2929 15.2071C5.48044 15.3946 5.73479 15.4999 6.00001 15.4999H7.00001V15.9999C7.00001 16.2652 7.10537 16.5195 7.2929 16.7071C7.48044 16.8946 7.73479 16.9999 8.00001 16.9999C8.26522 16.9999 8.51958 16.8946 8.70711 16.7071C8.89465 16.5195 9.00001 16.2652 9.00001 15.9999V15.4499C9.60758 15.3266 10.1476 14.9818 10.5154 14.4827C10.8831 13.9835 11.0522 13.3655 10.9899 12.7487C10.9276 12.1319 10.6383 11.5602 10.1782 11.1446C9.71807 10.7291 9.11998 10.4993 8.50001 10.4999H7.50001C7.3674 10.4999 7.24022 10.4473 7.14645 10.3535C7.05269 10.2597 7.00001 10.1326 7.00001 9.99995C7.00001 9.86734 7.05269 9.74016 7.14645 9.64639C7.24022 9.55262 7.3674 9.49995 7.50001 9.49995ZM19 10.9999H16V1.99995C16.0007 1.82374 15.9548 1.65047 15.867 1.49769C15.7792 1.34491 15.6526 1.21805 15.5 1.12995C15.348 1.04218 15.1755 0.995972 15 0.995972C14.8245 0.995972 14.652 1.04218 14.5 1.12995L11.5 2.84995L8.50001 1.12995C8.34799 1.04218 8.17554 0.995972 8.00001 0.995972C7.82447 0.995972 7.65203 1.04218 7.50001 1.12995L4.50001 2.84995L1.50001 1.12995C1.34799 1.04218 1.17554 0.995972 1.00001 0.995972C0.824471 0.995972 0.652027 1.04218 0.500008 1.12995C0.347404 1.21805 0.220789 1.34491 0.132986 1.49769C0.0451828 1.65047 -0.000691685 1.82374 7.88288e-06 1.99995V17.9999C7.88288e-06 18.7956 0.316078 19.5587 0.878688 20.1213C1.4413 20.6839 2.20436 20.9999 3.00001 20.9999H17C17.7957 20.9999 18.5587 20.6839 19.1213 20.1213C19.6839 19.5587 20 18.7956 20 17.9999V11.9999C20 11.7347 19.8947 11.4804 19.7071 11.2928C19.5196 11.1053 19.2652 10.9999 19 10.9999ZM3.00001 18.9999C2.73479 18.9999 2.48044 18.8946 2.2929 18.7071C2.10536 18.5195 2.00001 18.2652 2.00001 17.9999V3.72995L4.00001 4.86995C4.15435 4.95056 4.32589 4.99266 4.50001 4.99266C4.67413 4.99266 4.84567 4.95056 5.00001 4.86995L8.00001 3.14995L11 4.86995C11.1543 4.95056 11.3259 4.99266 11.5 4.99266C11.6741 4.99266 11.8457 4.95056 12 4.86995L14 3.72995V17.9999C14.0027 18.3411 14.0636 18.6793 14.18 18.9999H3.00001ZM18 17.9999C18 18.2652 17.8947 18.5195 17.7071 18.7071C17.5196 18.8946 17.2652 18.9999 17 18.9999C16.7348 18.9999 16.4804 18.8946 16.2929 18.7071C16.1054 18.5195 16 18.2652 16 17.9999V12.9999H18V17.9999Z" fill="#EB9F1A"/>
</svg>
