<svg width="30" height="30" viewBox="0 0 30 30" fill="none" xmlns="http://www.w3.org/2000/svg">
<path fill-rule="evenodd" clip-rule="evenodd" d="M8.75002 4.0625C9.26778 4.0625 9.68752 4.48223 9.68752 5V7.08454C13.2222 6.76975 16.7778 6.76975 20.3125 7.08454V5C20.3125 4.48223 20.7323 4.0625 21.25 4.0625C21.7678 4.0625 22.1875 4.48223 22.1875 5V7.27054C24.0538 7.53443 25.5282 9.01059 25.7778 10.8935L25.886 11.7097C26.3411 15.1426 26.3018 18.6231 25.7693 22.0448C25.5055 23.7399 24.1285 25.0418 22.4213 25.2102L20.93 25.3572C16.9862 25.7462 13.0137 25.7462 9.06992 25.3572L7.57867 25.2102C5.87149 25.0418 4.49442 23.7399 4.23065 22.0448C3.69821 18.6231 3.65891 15.1426 4.11395 11.7097L4.22214 10.8935C4.47174 9.01056 5.94617 7.53439 7.81252 7.27053V5C7.81252 4.48223 8.23225 4.0625 8.75002 4.0625ZM9.30647 9.00351C13.093 8.6301 16.907 8.6301 20.6935 9.00351L21.8253 9.11512C22.9087 9.22196 23.776 10.0607 23.9191 11.1399L24.0273 11.9561C24.0651 12.2413 24.0993 12.5267 24.1299 12.8125H5.87009C5.9007 12.5267 5.9349 12.2413 5.97269 11.9561L6.08088 11.1399C6.22394 10.0607 7.09122 9.22196 8.17466 9.11512L9.30647 9.00351ZM5.72105 14.6875C5.59833 17.0476 5.71924 19.4165 6.08336 21.7565C6.21566 22.6067 6.90638 23.2598 7.76268 23.3442L9.25394 23.4913C13.0754 23.8681 16.9246 23.8681 20.746 23.4913L22.2373 23.3442C23.0936 23.2598 23.7843 22.6067 23.9166 21.7565C24.2807 19.4165 24.4016 17.0476 24.2789 14.6875H5.72105Z" fill="white"/>
</svg>
