<svg width="30" height="30" viewBox="0 0 30 30" fill="none" xmlns="http://www.w3.org/2000/svg">
<path d="M9.35424 6.57436C7.9237 6.73424 6.77864 7.8633 6.61312 9.27844C6.16851 13.0799 6.16851 16.9202 6.61312 20.7216C6.77864 22.1367 7.9237 23.2658 9.35424 23.4257C13.0753 23.8416 16.9248 23.8416 20.6458 23.4257C22.0764 23.2658 23.2214 22.1367 23.387 20.7216C23.7064 17.9902 23.7963 15.2387 23.6567 12.4959C23.6531 12.4251 23.6796 12.356 23.7297 12.3059L25.0282 11.0074C25.1785 10.8571 25.4353 10.9511 25.4512 11.163C25.6963 14.4192 25.629 17.693 25.2493 20.9394C24.9807 23.2356 23.1371 25.0339 20.8541 25.2891C16.9947 25.7204 13.0054 25.7204 9.14598 25.2891C6.863 25.0339 5.01938 23.2356 4.75082 20.9394C4.28928 16.9933 4.28928 13.0068 4.75082 9.06062C5.01938 6.76442 6.863 4.96612 9.14598 4.71096C13.0054 4.27961 16.9947 4.27961 20.8541 4.71096C21.6582 4.80083 22.4077 5.08212 23.0532 5.50916C23.1802 5.59319 23.1928 5.77174 23.0851 5.87942L22.0815 6.88303C21.9994 6.96512 21.8721 6.97893 21.7698 6.9241C21.428 6.74098 21.0482 6.61933 20.6458 6.57436C16.9248 6.15848 13.0753 6.15848 9.35424 6.57436Z" fill="#EB9F1A"/>
<path d="M26.2879 7.53794C26.6541 7.17182 26.6541 6.57823 26.2879 6.21211C25.9218 5.846 25.3282 5.846 24.9621 6.21211L14.375 16.7992L11.2879 13.7121C10.9218 13.346 10.3282 13.346 9.96211 13.7121C9.59599 14.0782 9.59599 14.6718 9.96211 15.0379L13.7121 18.7879C14.0782 19.1541 14.6718 19.1541 15.0379 18.7879L26.2879 7.53794Z" fill="#EB9F1A"/>
</svg>
