<svg width="30" height="30" viewBox="0 0 30 30" fill="none" xmlns="http://www.w3.org/2000/svg">
<path d="M12.5 11.25C12.5 9.86927 13.6193 8.74998 15 8.74998C16.3807 8.74998 17.5 9.86927 17.5 11.25C17.5 12.6307 16.3807 13.75 15 13.75C13.6193 13.75 12.5 12.6307 12.5 11.25Z" fill="#EB9F1A"/>
<path d="M13.75 15.625C11.6789 15.625 9.99998 17.3039 9.99998 19.375C9.99998 20.0653 10.5596 20.625 11.25 20.625H18.75C19.4403 20.625 20 20.0653 20 19.375C20 17.3039 18.3211 15.625 16.25 15.625H13.75Z" fill="#EB9F1A"/>
<path fill-rule="evenodd" clip-rule="evenodd" d="M9.4294 3.60333C13.1242 3.07241 16.8758 3.07241 20.5706 3.60333C22.4025 3.86657 23.8138 5.35331 23.9815 7.19638L24.1402 8.94104C24.5069 12.972 24.5069 17.028 24.1402 21.0589L23.9815 22.8036C23.8138 24.6467 22.4025 26.1334 20.5706 26.3966C16.8758 26.9276 13.1242 26.9276 9.42939 26.3966C7.59753 26.1334 6.18617 24.6467 6.0185 22.8036L5.8598 21.0589C5.49311 17.028 5.49311 12.972 5.8598 8.94104L6.0185 7.19638C6.18616 5.35331 7.59753 3.86657 9.4294 3.60333ZM20.3039 5.45927C16.786 4.95376 13.214 4.95376 9.69609 5.45927C8.72385 5.59898 7.97478 6.38805 7.88579 7.36624L7.72709 9.11091C7.37068 13.0289 7.37068 16.9711 7.72709 20.8891L7.88579 22.6337C7.97478 23.6119 8.72385 24.401 9.69609 24.5407C13.214 25.0462 16.786 25.0462 20.3039 24.5407C21.2761 24.401 22.0252 23.6119 22.1142 22.6337L22.2729 20.8891C22.6293 16.9711 22.6293 13.0289 22.2729 9.1109L22.1142 7.36624C22.0252 6.38805 21.2761 5.59898 20.3039 5.45927Z" fill="#EB9F1A"/>
</svg>
