<svg width="30" height="30" viewBox="0 0 30 30" fill="none" xmlns="http://www.w3.org/2000/svg">
<path fill-rule="evenodd" clip-rule="evenodd" d="M3.50461 10.4416C3.15443 13.6953 3.17004 17.4478 3.65732 20.6882C3.92694 22.4811 5.39028 23.8557 7.19662 24.0127L9.08441 24.1768C13.0207 24.519 16.9793 24.519 20.9156 24.1768L22.8034 24.0127C24.6097 23.8557 26.0731 22.4811 26.3427 20.6882C26.83 17.4477 26.8456 13.6955 26.4954 10.4418C26.4501 10.0646 26.3992 9.68795 26.3427 9.31189C26.0731 7.5189 24.6097 6.14434 22.8034 5.98732L20.9156 5.82322C16.9793 5.48105 13.0207 5.48105 9.08441 5.82322L7.19661 5.98732C5.39028 6.14434 3.92694 7.5189 3.65732 9.31189C3.60078 9.68789 3.54988 10.0645 3.50461 10.4416ZM9.24678 7.69118C13.075 7.35839 16.925 7.35839 20.7532 7.69118L22.641 7.85528C23.5839 7.93724 24.3478 8.65477 24.4885 9.59071C24.5031 9.68791 24.5174 9.78515 24.5312 9.88243L17.5799 13.7442C15.9754 14.6356 14.0245 14.6356 12.42 13.7442L5.46881 9.88248C5.48263 9.78518 5.49685 9.68792 5.51147 9.59071C5.65222 8.65477 6.41608 7.93724 7.35899 7.85528L9.24678 7.69118ZM24.7606 11.8999C25.0031 14.7346 24.9124 17.5906 24.4885 20.4093C24.3478 21.3453 23.5839 22.0628 22.641 22.1448L20.7532 22.3089C16.925 22.6417 13.075 22.6417 9.24678 22.3089L7.35899 22.1448C6.41608 22.0628 5.65222 21.3453 5.51147 20.4093C5.08761 17.5907 4.99691 14.7346 5.23937 11.8999L11.5094 15.3833C13.6802 16.5893 16.3197 16.5893 18.4905 15.3833L24.7606 11.8999Z" fill="#EB9F1A"/>
</svg>
