<svg width="30" height="30" viewBox="0 0 30 30" fill="none" xmlns="http://www.w3.org/2000/svg">
<path fill-rule="evenodd" clip-rule="evenodd" d="M25.6629 5.66291C26.029 5.2968 26.029 4.7032 25.6629 4.33709C25.2968 3.97097 24.7032 3.97097 24.3371 4.33709L4.33709 24.3371C3.97097 24.7032 3.97097 25.2968 4.33709 25.6629C4.7032 26.029 5.2968 26.029 5.66291 25.6629L9.22153 22.1043C10.9294 22.9083 12.8965 23.4375 15 23.4375C18.355 23.4375 21.3629 22.0912 23.5257 20.4312C24.6092 19.5996 25.504 18.6719 26.1361 17.7611C26.7508 16.8754 27.1875 15.9034 27.1875 15C27.1875 14.0966 26.7508 13.1246 26.1361 12.2389C25.504 11.3281 24.6092 10.4004 23.5257 9.56879C23.1981 9.31731 22.851 9.07303 22.4863 8.83953L25.6629 5.66291ZM21.1244 10.2014L18.9109 12.4149C19.4017 13.156 19.6875 14.0446 19.6875 15C19.6875 17.5888 17.5888 19.6875 15 19.6875C14.0446 19.6875 13.156 19.4017 12.4149 18.9109L10.644 20.6818C11.976 21.2244 13.4526 21.5625 15 21.5625C17.8582 21.5625 20.4753 20.4088 22.3842 18.9438C23.3365 18.2129 24.0893 17.4218 24.5957 16.6921C25.1196 15.9371 25.3125 15.3466 25.3125 15C25.3125 14.6534 25.1196 14.0629 24.5957 13.3079C24.0893 12.5782 23.3365 11.7871 22.3842 11.0562C21.9927 10.7558 21.5714 10.4684 21.1244 10.2014ZM13.7874 17.5384C14.1546 17.7141 14.5658 17.8125 15 17.8125C16.5533 17.8125 17.8125 16.5533 17.8125 15C17.8125 14.5658 17.7141 14.1546 17.5384 13.7874L13.7874 17.5384Z" fill="#EB9F1A"/>
<path d="M15 6.5625C16.3265 6.5625 17.5988 6.77297 18.786 7.13007C18.964 7.18363 19.0171 7.40708 18.8856 7.53855L17.7585 8.66573C17.6966 8.72758 17.607 8.75241 17.5218 8.73254C16.7121 8.54369 15.8671 8.4375 15 8.4375C12.1418 8.4375 9.52473 9.59115 7.61584 11.0562C6.66347 11.7871 5.91071 12.5782 5.40428 13.3079C4.88039 14.0629 4.6875 14.6534 4.6875 15C4.6875 15.3466 4.88039 15.9371 5.40428 16.6921C5.85676 17.3441 6.50586 18.045 7.31829 18.7083C7.43468 18.8033 7.4457 18.9785 7.33945 19.0847L6.36361 20.0606C6.2733 20.1509 6.12927 20.1588 6.03109 20.0771C5.14572 19.3406 4.40763 18.5446 3.86388 17.7611C3.24921 16.8754 2.8125 15.9034 2.8125 15C2.8125 14.0966 3.24921 13.1246 3.86388 12.2389C4.49601 11.3281 5.39078 10.4004 6.47426 9.56879C8.63707 7.90885 11.645 6.5625 15 6.5625Z" fill="#EB9F1A"/>
<path d="M15 10.3125C15.1871 10.3125 15.3716 10.3235 15.5529 10.3448C15.7493 10.3678 15.8202 10.604 15.6804 10.7438L14.0842 12.34C13.2676 12.621 12.621 13.2676 12.34 14.0842L10.7438 15.6804C10.604 15.8202 10.3678 15.7493 10.3448 15.5529C10.3235 15.3716 10.3125 15.1871 10.3125 15C10.3125 12.4112 12.4112 10.3125 15 10.3125Z" fill="#EB9F1A"/>
</svg>
