<svg width="30" height="30" viewBox="0 0 30 30" fill="none" xmlns="http://www.w3.org/2000/svg">
<path fill-rule="evenodd" clip-rule="evenodd" d="M10.3125 15C10.3125 12.4112 12.4112 10.3125 15 10.3125C17.5888 10.3125 19.6875 12.4112 19.6875 15C19.6875 17.5888 17.5888 19.6875 15 19.6875C12.4112 19.6875 10.3125 17.5888 10.3125 15ZM15 12.1875C13.4467 12.1875 12.1875 13.4467 12.1875 15C12.1875 16.5533 13.4467 17.8125 15 17.8125C16.5533 17.8125 17.8125 16.5533 17.8125 15C17.8125 13.4467 16.5533 12.1875 15 12.1875Z" fill="#EB9F1A"/>
<path fill-rule="evenodd" clip-rule="evenodd" d="M5.40428 13.3079C4.88039 14.0629 4.6875 14.6534 4.6875 15C4.6875 15.3466 4.88039 15.9371 5.40428 16.6921C5.91071 17.4218 6.66347 18.2129 7.61584 18.9438C9.52473 20.4088 12.1418 21.5625 15 21.5625C17.8582 21.5625 20.4753 20.4088 22.3842 18.9438C23.3365 18.2129 24.0893 17.4218 24.5957 16.6921C25.1196 15.9371 25.3125 15.3466 25.3125 15C25.3125 14.6534 25.1196 14.0629 24.5957 13.3079C24.0893 12.5782 23.3365 11.7871 22.3842 11.0562C20.4753 9.59115 17.8582 8.4375 15 8.4375C12.1418 8.4375 9.52473 9.59115 7.61584 11.0562C6.66347 11.7871 5.91071 12.5782 5.40428 13.3079ZM6.47426 9.56879C8.63707 7.90885 11.645 6.5625 15 6.5625C18.355 6.5625 21.3629 7.90885 23.5257 9.56879C24.6092 10.4004 25.504 11.3281 26.1361 12.2389C26.7508 13.1246 27.1875 14.0966 27.1875 15C27.1875 15.9034 26.7508 16.8754 26.1361 17.7611C25.504 18.6719 24.6092 19.5996 23.5257 20.4312C21.3629 22.0912 18.355 23.4375 15 23.4375C11.645 23.4375 8.63707 22.0912 6.47426 20.4312C5.39078 19.5996 4.49601 18.6719 3.86388 17.7611C3.24921 16.8754 2.8125 15.9034 2.8125 15C2.8125 14.0966 3.24921 13.1246 3.86388 12.2389C4.49601 11.3281 5.39078 10.4004 6.47426 9.56879Z" fill="#EB9F1A"/>
</svg>
