<svg width="30" height="30" viewBox="0 0 30 30" fill="none" xmlns="http://www.w3.org/2000/svg">
<path d="M10.5847 10.4932L10.5819 10.4955L10.5792 10.4981L10.5847 10.4932ZM23.0273 10.26C22.9404 10.1762 22.8439 10.1029 22.7398 10.0415C22.5926 9.95484 22.4291 9.89929 22.2595 9.87831C22.0899 9.85733 21.9178 9.87136 21.7539 9.91953C21.5899 9.96769 21.4376 10.049 21.3063 10.1584C21.175 10.2677 21.0675 10.4029 20.9906 10.5554C20.56 11.4038 19.9661 12.1588 19.2431 12.7771C19.3536 12.1541 19.4094 11.5226 19.4097 10.8899C19.412 8.96503 18.9042 7.07391 17.938 5.4091C16.9718 3.7443 15.5817 2.36526 13.9092 1.4124C13.725 1.30796 13.5172 1.25204 13.3054 1.24988C13.0937 1.24773 12.8848 1.29941 12.6985 1.40008C12.5122 1.50075 12.3545 1.6471 12.2402 1.82541C12.1259 2.00372 12.0588 2.20814 12.0452 2.41949C11.9752 3.60471 11.6654 4.76338 11.1344 5.82532C10.6035 6.88726 9.86243 7.83034 8.95623 8.59744L8.66814 8.83181C7.72053 9.46942 6.88176 10.2554 6.18402 11.1597C5.09941 12.5261 4.34807 14.1264 3.98959 15.8337C3.6311 17.541 3.67533 19.3083 4.11876 20.9955C4.56219 22.6828 5.39263 24.2435 6.54422 25.5539C7.69582 26.8643 9.13689 27.8884 10.7532 28.5449C10.9429 28.6225 11.1489 28.6521 11.3528 28.6313C11.5567 28.6104 11.7524 28.5397 11.9226 28.4254C12.0927 28.311 12.2321 28.1565 12.3284 27.9756C12.4248 27.7946 12.4751 27.5927 12.475 27.3877C12.4741 27.2551 12.4531 27.1234 12.4127 26.9971C12.1331 25.9459 12.0525 24.8516 12.1753 23.7708C13.3581 26.0017 15.2567 27.77 17.5659 28.7915C17.8478 28.9176 18.1664 28.9346 18.4601 28.8391C20.2845 28.2503 21.9281 27.2047 23.2346 25.8017C24.5412 24.3987 25.4673 22.685 25.9249 20.8233C26.3826 18.9616 26.3566 17.0138 25.8495 15.1649C25.3423 13.3161 24.3708 11.6277 23.0273 10.26ZM18.1463 26.2989C17.0567 25.7466 16.0956 24.9713 15.3253 24.0232C14.555 23.0751 13.9929 21.9755 13.6755 20.7959C13.5786 20.3987 13.5036 19.9965 13.4509 19.5911C13.4152 19.3329 13.2997 19.0923 13.1206 18.903C12.9414 18.7137 12.7076 18.5851 12.4518 18.5352C12.373 18.5196 12.2928 18.5119 12.2125 18.512C11.9928 18.5119 11.7769 18.5698 11.5867 18.6797C11.3965 18.7897 11.2387 18.9478 11.1291 19.1382C10.0919 20.9271 9.57035 22.9683 9.62214 25.0354C8.70994 24.3262 7.94758 23.443 7.37924 22.4369C6.81089 21.4309 6.44788 20.3221 6.31123 19.1747C6.17458 18.0273 6.26701 16.8642 6.58317 15.7529C6.89933 14.6415 7.43292 13.6039 8.15303 12.7003C8.6998 11.99 9.35939 11.3744 10.1055 10.8777C10.1378 10.8569 10.1688 10.8341 10.1983 10.8094C10.1983 10.8094 10.5692 10.5025 10.5818 10.4955C12.3627 8.98921 13.6293 6.96491 14.2053 4.70465C15.5672 5.96369 16.4754 7.63719 16.7887 9.46529C17.102 11.2934 16.803 13.1738 15.9381 14.8145C15.8238 15.0335 15.7769 15.2813 15.8033 15.5269C15.8298 15.7724 15.9283 16.0046 16.0866 16.1942C16.2448 16.3838 16.4557 16.5223 16.6926 16.5922C16.9294 16.6621 17.1817 16.6603 17.4175 16.587C19.3323 15.9868 21.0172 14.8144 22.2454 13.2276C22.9836 14.318 23.4662 15.5609 23.6573 16.8637C23.8484 18.1665 23.743 19.4957 23.349 20.7521C22.955 22.0085 22.2825 23.1598 21.3817 24.1202C20.4809 25.0806 19.3749 25.8253 18.1463 26.2989L18.1463 26.2989Z" fill="#EB9F1A"/>
</svg>
