<svg width="30" height="30" viewBox="0 0 30 30" fill="none" xmlns="http://www.w3.org/2000/svg">
<path d="M23.75 2.5C23.4185 2.5 23.1005 2.6317 22.8661 2.86612C22.6317 3.10054 22.5 3.41848 22.5 3.75V10.575L21.25 11.4125V3.75C21.25 3.41848 21.1183 3.10054 20.8839 2.86612C20.6495 2.6317 20.3315 2.5 20 2.5C19.6685 2.5 19.3505 2.6317 19.1161 2.86612C18.8817 3.10054 18.75 3.41848 18.75 3.75V11.4125L17.5 10.575V3.75C17.5 3.41848 17.3683 3.10054 17.1339 2.86612C16.8995 2.6317 16.5815 2.5 16.25 2.5C15.9185 2.5 15.6005 2.6317 15.3661 2.86612C15.1317 3.10054 15 3.41848 15 3.75V11.25C15.0011 11.4559 15.053 11.6583 15.1511 11.8393C15.2492 12.0203 15.3905 12.1743 15.5625 12.2875L18.75 14.425V26.25C18.75 26.5815 18.8817 26.8995 19.1161 27.1339C19.3505 27.3683 19.6685 27.5 20 27.5C20.3315 27.5 20.6495 27.3683 20.8839 27.1339C21.1183 26.8995 21.25 26.5815 21.25 26.25V14.425L24.4375 12.2875C24.6094 12.1743 24.7508 12.0203 24.8489 11.8393C24.947 11.6583 24.9989 11.4559 25 11.25V3.75C25 3.41848 24.8683 3.10054 24.6339 2.86612C24.3995 2.6317 24.0815 2.5 23.75 2.5ZM11.25 2.5C9.5924 2.5 8.00269 3.15848 6.83058 4.33058C5.65848 5.50269 5 7.0924 5 8.75V16.25C5 16.5815 5.1317 16.8995 5.36612 17.1339C5.60054 17.3683 5.91848 17.5 6.25 17.5H10V26.25C10 26.5815 10.1317 26.8995 10.3661 27.1339C10.6005 27.3683 10.9185 27.5 11.25 27.5C11.5815 27.5 11.8995 27.3683 12.1339 27.1339C12.3683 26.8995 12.5 26.5815 12.5 26.25V3.75C12.5 3.41848 12.3683 3.10054 12.1339 2.86612C11.8995 2.6317 11.5815 2.5 11.25 2.5ZM10 15H7.5V8.75C7.49959 7.97418 7.73982 7.21734 8.18757 6.58377C8.63532 5.95021 9.26855 5.47111 10 5.2125V15Z" fill="#EB9F1A"/>
</svg>
