<svg width="30" height="30" viewBox="0 0 30 30" fill="none" xmlns="http://www.w3.org/2000/svg">
<path d="M7.3195 8.54958C7.02897 8.39314 6.67758 8.40096 6.39429 8.57016C6.111 8.73937 5.93753 9.04505 5.93753 9.37502V21.25C5.93753 21.7678 6.35726 22.1875 6.87503 22.1875C7.3928 22.1875 7.81253 21.7678 7.81253 21.25V10.9446L14.5556 14.5755C14.833 14.7249 15.167 14.7249 15.4445 14.5755L22.1875 10.9446V21.25C22.1875 21.7678 22.6073 22.1875 23.125 22.1875C23.6428 22.1875 24.0625 21.7678 24.0625 21.25V9.37502C24.0625 9.04505 23.8891 8.73937 23.6058 8.57016C23.3225 8.40096 22.9711 8.39314 22.6806 8.54958L15 12.6853L7.3195 8.54958Z" fill="#EB9F1A"/>
<path fill-rule="evenodd" clip-rule="evenodd" d="M21.6383 4.65232C17.2216 4.25741 12.7785 4.25741 8.36181 4.65232L6.46514 4.8219C4.43062 5.00381 2.78678 6.55809 2.49129 8.57924C1.86879 12.8371 1.86879 17.1629 2.49129 21.4208C2.78678 23.442 4.43062 24.9962 6.46514 25.1781L8.36182 25.3477C12.7785 25.7426 17.2216 25.7426 21.6383 25.3477L23.535 25.1781C25.5695 24.9962 27.2133 23.442 27.5088 21.4208C28.1313 17.1629 28.1313 12.8371 27.5088 8.57924C27.2133 6.55809 25.5695 5.00381 23.535 4.8219L21.6383 4.65232ZM8.5288 6.51987C12.8344 6.1349 17.1657 6.1349 21.4713 6.51987L23.368 6.68945C24.5381 6.79408 25.4836 7.68802 25.6535 8.85048C26.2497 12.9285 26.2497 17.0715 25.6535 21.1496C25.4836 22.312 24.5381 23.206 23.368 23.3106L21.4713 23.4802C17.1657 23.8651 12.8344 23.8651 8.5288 23.4802L6.63212 23.3106C5.46197 23.206 4.51652 22.312 4.34657 21.1496C3.75036 17.0715 3.75036 12.9285 4.34657 8.85048C4.51652 7.68802 5.46197 6.79408 6.63212 6.68945L8.5288 6.51987Z" fill="#EB9F1A"/>
</svg>
