<svg width="30" height="30" viewBox="0 0 30 30" fill="none" xmlns="http://www.w3.org/2000/svg">
<path fill-rule="evenodd" clip-rule="evenodd" d="M9.06247 12.5C9.06247 9.22081 11.7208 6.5625 15 6.5625C18.2792 6.5625 20.9375 9.22081 20.9375 12.5C20.9375 15.7792 18.2792 18.4375 15 18.4375C11.7208 18.4375 9.06247 15.7792 9.06247 12.5ZM15 8.4375C12.7563 8.4375 10.9375 10.2563 10.9375 12.5C10.9375 14.7437 12.7563 16.5625 15 16.5625C17.2436 16.5625 19.0625 14.7437 19.0625 12.5C19.0625 10.2563 17.2436 8.4375 15 8.4375Z" fill="#EB9F1A"/>
<path fill-rule="evenodd" clip-rule="evenodd" d="M4.40542 11.0711C4.84833 5.6978 9.33852 1.5625 14.73 1.5625H15.2699C20.6614 1.5625 25.1516 5.6978 25.5945 11.0711C25.8324 13.9575 24.9408 16.8236 23.1075 19.0657L17.1162 26.3929C16.0224 27.7306 13.9775 27.7306 12.8838 26.393L6.89242 19.0657C5.0591 16.8236 4.1675 13.9575 4.40542 11.0711ZM14.73 3.4375C10.3143 3.4375 6.63683 6.82435 6.27409 11.2251C6.07607 13.6274 6.81813 16.0128 8.34395 17.8788L14.3353 25.2061C14.6788 25.6262 15.3211 25.6262 15.6647 25.2061L21.656 17.8788C23.1818 16.0128 23.9239 13.6274 23.7259 11.2251C23.3631 6.82435 19.6856 3.4375 15.2699 3.4375H14.73Z" fill="#EB9F1A"/>
</svg>
