<svg width="30" height="30" viewBox="0 0 30 30" fill="none" xmlns="http://www.w3.org/2000/svg">
<path fill-rule="evenodd" clip-rule="evenodd" d="M7.30035 12.3205C9.53449 17.1853 13.5101 21.053 18.4523 23.1488L18.4679 23.1554L19.4227 23.5809C20.6385 24.1226 22.0675 23.7379 22.847 22.6591L24.44 20.4544C24.5373 20.3197 24.5122 20.1325 24.3829 20.0281L21.602 17.7846C21.4637 17.6731 21.2604 17.6991 21.1547 17.8418L20.0723 19.3023C19.8095 19.657 19.3348 19.7802 18.9326 19.5982C15.2371 17.9258 12.2675 14.9562 10.595 11.2606C10.413 10.8584 10.5363 10.3838 10.891 10.1209L12.3514 9.03858C12.4941 8.93282 12.5201 8.72954 12.4086 8.59129L10.1648 5.80999C10.0605 5.68072 9.87331 5.65561 9.73865 5.75283L7.52203 7.35302C6.43605 8.13701 6.0536 9.57807 6.60793 10.7974L7.2996 12.3188C7.29985 12.3194 7.3001 12.3199 7.30035 12.3205ZM17.7124 24.8716C12.3424 22.5922 8.02318 18.3884 5.59563 13.1012L5.59416 13.098L4.90104 11.5734C3.97716 9.54118 4.61457 7.13942 6.42455 5.83278L8.64116 4.23258C9.58381 3.55207 10.8941 3.72783 11.6241 4.63269L13.8679 7.414C14.6486 8.38171 14.4668 9.80471 13.4678 10.545L12.6309 11.1652C14.0446 13.9082 16.285 16.1487 19.028 17.5623L19.6482 16.7254C20.3885 15.7265 21.8115 15.5446 22.7793 16.3253L25.5602 18.5688C26.4653 19.299 26.6409 20.6098 25.9598 21.5525L24.3668 23.7572C23.0676 25.5553 20.6859 26.1965 18.6596 25.2936L17.7124 24.8716Z" fill="#EB9F1A"/>
</svg>
