<svg width="64" height="64" viewBox="0 0 64 64" fill="none" xmlns="http://www.w3.org/2000/svg">
<path d="M40.6133 21.8352L27.0283 35.4518L21.8033 30.2268C21.5194 29.8953 21.17 29.6261 20.7772 29.436C20.3843 29.246 19.9564 29.1391 19.5203 29.1223C19.0842 29.1055 18.6493 29.1789 18.2429 29.3381C17.8365 29.4973 17.4675 29.7388 17.1589 30.0474C16.8503 30.356 16.6088 30.7251 16.4496 31.1315C16.2904 31.5378 16.2169 31.9727 16.2337 32.4088C16.2506 32.8449 16.3574 33.2729 16.5475 33.6657C16.7375 34.0586 17.0068 34.4079 17.3383 34.6918L24.7799 42.1652C25.0758 42.4587 25.4267 42.6908 25.8126 42.8484C26.1984 43.006 26.6115 43.0859 27.0283 43.0835C27.859 43.08 28.6551 42.7502 29.2449 42.1652L45.0783 26.3318C45.3751 26.0374 45.6107 25.6872 45.7714 25.3013C45.9322 24.9154 46.015 24.5015 46.015 24.0835C46.015 23.6655 45.9322 23.2516 45.7714 22.8657C45.6107 22.4798 45.3751 22.1295 45.0783 21.8352C44.4849 21.2454 43.6824 20.9143 42.8458 20.9143C42.0092 20.9143 41.2066 21.2454 40.6133 21.8352ZM31.9999 0.333496C25.7369 0.333496 19.6144 2.19071 14.4069 5.67029C9.19932 9.14987 5.14052 14.0955 2.74375 19.8819C0.346973 25.6682 -0.280133 32.0353 0.941732 38.178C2.1636 44.3208 5.17955 49.9632 9.60822 54.3919C14.0369 58.8205 19.6793 61.8365 25.8221 63.0584C31.9648 64.2802 38.3319 63.6531 44.1182 61.2564C49.9046 58.8596 54.8502 54.8008 58.3298 49.5932C61.8094 44.3857 63.6666 38.2632 63.6666 32.0002C63.6666 27.8416 62.8475 23.7238 61.2561 19.8819C59.6647 16.0399 57.3322 12.549 54.3916 9.60845C51.4511 6.66793 47.9602 4.33538 44.1182 2.74398C40.2763 1.15258 36.1585 0.333496 31.9999 0.333496ZM31.9999 57.3335C26.9895 57.3335 22.0915 55.8477 17.9255 53.0641C13.7594 50.2804 10.5124 46.3239 8.59499 41.6948C6.67757 37.0657 6.17588 31.9721 7.15337 27.0579C8.13087 22.1437 10.5436 17.6297 14.0866 14.0868C17.6295 10.5439 22.1435 8.1311 27.0576 7.1536C31.9718 6.17611 37.0655 6.6778 41.6946 8.59522C46.3236 10.5126 50.2802 13.7597 53.0638 17.9257C55.8475 22.0918 57.3333 26.9897 57.3333 32.0002C57.3333 38.719 54.6642 45.1626 49.9133 49.9135C45.1624 54.6645 38.7188 57.3335 31.9999 57.3335Z" fill="#38EB1A"/>
</svg>
