<svg width="14" height="14" viewBox="0 0 14 14" fill="none" xmlns="http://www.w3.org/2000/svg">
<path d="M13.0984 2.49221C13.5377 2.05287 13.5377 1.34056 13.0984 0.901221C12.659 0.461881 11.9467 0.461881 11.5074 0.901221L6.9996 5.40902L2.4918 0.901222C2.05246 0.461882 1.34015 0.461882 0.900808 0.901222C0.461468 1.34056 0.461468 2.05287 0.900808 2.49221L5.40861 7.00001L0.900794 11.5078C0.461454 11.9472 0.461454 12.6595 0.900794 13.0988C1.34013 13.5382 2.05244 13.5382 2.49178 13.0988L6.9996 8.591L11.5074 13.0988C11.9467 13.5382 12.6591 13.5382 13.0984 13.0988C13.5377 12.6595 13.5377 11.9472 13.0984 11.5078L8.59059 7.00001L13.0984 2.49221Z" fill="#353535"/>
</svg>
