<svg width="56" height="56" viewBox="0 0 56 56" fill="none" xmlns="http://www.w3.org/2000/svg">
<path d="M28 24.0415C29.3116 24.0415 30.375 25.1048 30.375 26.4165V42.2498C30.375 43.5615 29.3116 44.6248 28 44.6248C26.6883 44.6248 25.625 43.5615 25.625 42.2498V26.4165C25.625 25.1048 26.6883 24.0415 28 24.0415Z" fill="#E0CD1D"/>
<path d="M28 18.4998C29.7489 18.4998 31.1666 17.0821 31.1666 15.3332C31.1666 13.5843 29.7489 12.1665 28 12.1665C26.2511 12.1665 24.8333 13.5843 24.8333 15.3332C24.8333 17.0821 26.2511 18.4998 28 18.4998Z" fill="#E0CD1D"/>
<path fill-rule="evenodd" clip-rule="evenodd" d="M0.291626 27.9998C0.291626 12.6969 12.6971 0.291504 28 0.291504C43.3028 0.291504 55.7083 12.6969 55.7083 27.9998C55.7083 43.3027 43.3028 55.7082 28 55.7082C12.6971 55.7082 0.291626 43.3027 0.291626 27.9998ZM28 5.0415C15.3204 5.0415 5.04163 15.3203 5.04163 27.9998C5.04163 40.6794 15.3204 50.9582 28 50.9582C40.6795 50.9582 50.9583 40.6794 50.9583 27.9998C50.9583 15.3203 40.6795 5.0415 28 5.0415Z" fill="#E0CD1D"/>
</svg>
