<svg width="22" height="22" viewBox="0 0 22 22" fill="none" xmlns="http://www.w3.org/2000/svg">
<path fill-rule="evenodd" clip-rule="evenodd" d="M10.9998 2.07897L8.78697 4.36847C8.55145 4.61216 8.22707 4.74977 7.88816 4.74977H4.74977V7.88816C4.74977 8.22707 4.61216 8.55145 4.36847 8.78697L2.07897 10.9998L4.36847 13.2126C4.61216 13.4481 4.74977 13.7725 4.74977 14.1114V17.2498H7.88816C8.22707 17.2498 8.55145 17.3874 8.78697 17.6311L10.9998 19.9206L13.2126 17.6311C13.4481 17.3874 13.7725 17.2498 14.1114 17.2498H17.2498V14.1114C17.2498 13.7725 17.3874 13.4481 17.6311 13.2126L19.9206 10.9998L17.6311 8.78698C17.3874 8.55145 17.2498 8.22707 17.2498 7.88817V4.74977H14.1114C13.7725 4.74977 13.4481 4.61216 13.2126 4.36847L10.9998 2.07897ZM10.101 0.850539C10.5923 0.342138 11.4072 0.342139 11.8986 0.850539L14.2174 3.24977H17.4998C18.1901 3.24977 18.7498 3.80942 18.7498 4.49977V7.78211L21.149 10.101C21.6574 10.5923 21.6574 11.4072 21.149 11.8986L18.7498 14.2174V17.4998C18.7498 18.1901 18.1901 18.7498 17.4998 18.7498H14.2174L11.8986 21.149C11.4072 21.6574 10.5923 21.6574 10.101 21.149L7.7821 18.7498H4.49977C3.80942 18.7498 3.24977 18.1901 3.24977 17.4998V14.2174L0.850539 11.8986C0.342139 11.4072 0.342138 10.5923 0.850538 10.101L3.24977 7.7821V4.49977C3.24977 3.80942 3.80942 3.24977 4.49977 3.24977H7.7821L10.101 0.850539Z" fill="white"/>
<path fill-rule="evenodd" clip-rule="evenodd" d="M6.24977 10.9998C6.24977 8.37642 8.37642 6.24977 10.9998 6.24977C13.6231 6.24977 15.7498 8.37642 15.7498 10.9998C15.7498 13.6231 13.6231 15.7498 10.9998 15.7498C8.37642 15.7498 6.24977 13.6231 6.24977 10.9998ZM10.9998 7.74977C9.20485 7.74977 7.74977 9.20485 7.74977 10.9998C7.74977 12.7947 9.20485 14.2498 10.9998 14.2498C12.7947 14.2498 14.2498 12.7947 14.2498 10.9998C14.2498 9.20485 12.7947 7.74977 10.9998 7.74977Z" fill="white"/>
</svg>
